<?xml version="1.0" encoding="UTF-8" standalone="no"?>
<!DOCTYPE svg PUBLIC "-//W3C//DTD SVG 1.1//EN" "http://www.w3.org/Graphics/SVG/1.1/DTD/svg11.dtd">
<svg width="100%" height="100%" viewBox="0 0 1024 600" version="1.1" xmlns="http://www.w3.org/2000/svg" xmlns:xlink="http://www.w3.org/1999/xlink" xml:space="preserve" xmlns:serif="http://www.serif.com/" style="fill-rule:evenodd;clip-rule:evenodd;stroke-linejoin:round;stroke-miterlimit:2;">
    <g transform="matrix(1,0,0,1,-768,-980)">
        <g id="banner-wb-dark" transform="matrix(1,0,0,1,1024,1024)">
            <g id="_1024x600" serif:id="1024x600" transform="matrix(2.08634,0,0,1.23343,-300.206,-75.5154)">
                <rect x="21.188" y="25.551" width="490.812" height="486.449"/>
            </g>
            <g transform="matrix(0.78125,0,0,0.78125,-203.177,115.375)">
                <g transform="matrix(1.59692,0,0,1.59692,403.236,-458.966)">
                    <g transform="matrix(0.383756,0,0,0.384825,91.5055,-277.627)">
                        <path d="M-40.405,1906.99C-40.405,1918.1 -31.916,1926.99 -20.814,1926.99C-15.101,1926.99 -11.183,1924.62 -8.57,1920.87L-8.57,1926.18L-1.632,1926.18L-1.632,1887.81L-8.57,1887.81L-8.57,1893.12C-11.183,1889.36 -15.101,1887 -20.814,1887C-31.916,1887 -40.405,1895.89 -40.405,1906.99ZM-20.406,1893.93C-15.101,1893.93 -10.611,1896.95 -8.57,1901.44L-8.57,1912.54C-10.611,1916.95 -15.101,1920.05 -20.406,1920.05C-27.671,1920.05 -33.466,1914.26 -33.466,1906.99C-33.466,1899.73 -27.671,1893.93 -20.406,1893.93Z" style="fill:white;fill-rule:nonzero;"/>
                        <path d="M8.163,1887.81L8.163,1893.85L14.693,1893.85L14.693,1926.18L21.631,1926.18L21.631,1893.85L32.406,1893.85L32.406,1887.81L21.631,1887.81L21.631,1874.83L14.693,1874.83L14.693,1887.81L8.163,1887.81Z" style="fill:white;fill-rule:nonzero;"/>
                        <path d="M36.487,1906.99C36.487,1918.1 44.65,1926.99 56.812,1926.99C63.832,1926.99 68.076,1925.44 71.423,1923.73L71.423,1916.71C67.832,1918.5 63.342,1920.05 56.812,1920.05C49.139,1920.05 44.242,1915.16 43.507,1908.71L73.301,1908.71L73.301,1902.67C71.913,1893.28 66.281,1887 55.18,1887C43.834,1887 36.487,1895.89 36.487,1906.99ZM55.18,1893.93C63.179,1893.93 65.546,1898.91 65.873,1903.08L43.834,1903.08C45.14,1897.77 49.058,1893.93 55.18,1893.93Z" style="fill:white;fill-rule:nonzero;"/>
                        <rect x="84.728" y="1864.96" width="6.938" height="61.22" style="fill:white;fill-rule:nonzero;"/>
                        <path d="M104.727,1926.18L111.665,1926.18L111.665,1887.81L104.727,1887.81L104.727,1926.18ZM103.91,1872.55C103.91,1874.91 105.869,1876.87 108.237,1876.87C110.604,1876.87 112.563,1874.91 112.563,1872.55C112.563,1870.18 110.604,1868.22 108.237,1868.22C105.869,1868.22 103.91,1870.18 103.91,1872.55Z" style="fill:white;fill-rule:nonzero;"/>
                        <path d="M121.46,1906.99C121.46,1918.1 129.623,1926.99 141.785,1926.99C148.805,1926.99 153.049,1925.44 156.396,1923.73L156.396,1916.71C152.804,1918.5 148.315,1920.05 141.785,1920.05C134.112,1920.05 129.214,1915.16 128.48,1908.71L158.273,1908.71L158.273,1902.67C156.886,1893.28 151.254,1887 140.152,1887C128.806,1887 121.46,1895.89 121.46,1906.99ZM140.152,1893.93C148.152,1893.93 150.519,1898.91 150.845,1903.08L128.806,1903.08C130.112,1897.77 134.03,1893.93 140.152,1893.93Z" style="fill:white;fill-rule:nonzero;"/>
                        <path d="M176.639,1926.18L176.639,1907.24C176.639,1901.12 179.088,1894.75 187.006,1894.75L190.352,1894.75L190.271,1887.81L187.251,1887.81C181.618,1887.81 178.435,1890.75 176.639,1894.51L176.639,1887.81L169.701,1887.81L169.701,1926.18L176.639,1926.18Z" style="fill:white;fill-rule:nonzero;"/>
                        <path d="M236.879,1926.99C243.573,1926.99 246.43,1925.44 249.776,1923.73L249.776,1916.71C246.185,1918.5 242.267,1920.05 236.961,1920.05C228.962,1920.05 224.227,1914.26 224.227,1906.99C224.227,1899.73 229.941,1893.93 236.961,1893.93C242.267,1893.93 246.185,1895.48 249.776,1897.28L249.776,1890.26C246.43,1888.55 243.573,1887 236.879,1887C226.105,1887 217.289,1895.89 217.289,1906.99C217.289,1918.1 225.044,1926.99 236.879,1926.99Z" style="fill:white;fill-rule:nonzero;"/>
                        <path d="M257.939,1906.99C257.939,1918.1 266.836,1926.99 277.937,1926.99C289.038,1926.99 297.936,1918.1 297.936,1906.99C297.936,1895.89 289.038,1887 277.937,1887C266.836,1887 257.939,1895.89 257.939,1906.99ZM277.937,1893.93C285.202,1893.93 290.998,1899.73 290.998,1906.99C290.998,1914.26 285.202,1920.05 277.937,1920.05C270.673,1920.05 264.877,1914.26 264.877,1906.99C264.877,1899.73 270.673,1893.93 277.937,1893.93Z" style="fill:white;fill-rule:nonzero;"/>
                        <rect x="307.731" y="1864.96" width="6.938" height="61.22" style="fill:white;fill-rule:nonzero;"/>
                        <rect x="327.729" y="1864.96" width="6.938" height="61.22" style="fill:white;fill-rule:nonzero;"/>
                        <path d="M344.463,1906.99C344.463,1918.1 352.625,1926.99 364.788,1926.99C371.807,1926.99 376.052,1925.44 379.399,1923.73L379.399,1916.71C375.807,1918.5 371.318,1920.05 364.788,1920.05C357.115,1920.05 352.217,1915.16 351.482,1908.71L381.276,1908.71L381.276,1902.67C379.888,1893.28 374.256,1887 363.155,1887C351.809,1887 344.463,1895.89 344.463,1906.99ZM363.155,1893.93C371.154,1893.93 373.522,1898.91 373.848,1903.08L351.809,1903.08C353.115,1897.77 357.033,1893.93 363.155,1893.93Z" style="fill:white;fill-rule:nonzero;"/>
                        <path d="M409.029,1926.99C415.722,1926.99 418.579,1925.44 421.926,1923.73L421.926,1916.71C418.334,1918.5 414.416,1920.05 409.111,1920.05C401.111,1920.05 396.377,1914.26 396.377,1906.99C396.377,1899.73 402.091,1893.93 409.111,1893.93C414.416,1893.93 418.334,1895.48 421.926,1897.28L421.926,1890.26C418.579,1888.55 415.722,1887 409.029,1887C398.254,1887 389.439,1895.89 389.439,1906.99C389.439,1918.1 397.193,1926.99 409.029,1926.99Z" style="fill:white;fill-rule:nonzero;"/>
                        <path d="M430.088,1887.81L430.088,1893.85L436.619,1893.85L436.619,1926.18L443.557,1926.18L443.557,1893.85L454.331,1893.85L454.331,1887.81L443.557,1887.81L443.557,1874.83L436.619,1874.83L436.619,1887.81L430.088,1887.81Z" style="fill:white;fill-rule:nonzero;"/>
                        <path d="M461.678,1926.18L468.616,1926.18L468.616,1887.81L461.678,1887.81L461.678,1926.18ZM460.862,1872.55C460.862,1874.91 462.821,1876.87 465.188,1876.87C467.555,1876.87 469.514,1874.91 469.514,1872.55C469.514,1870.18 467.555,1868.22 465.188,1868.22C462.821,1868.22 460.862,1870.18 460.862,1872.55Z" style="fill:white;fill-rule:nonzero;"/>
                        <path d="M478.411,1887.81L478.411,1893.85L484.778,1893.85L484.778,1926.18L491.798,1926.18L491.798,1893.85L500.205,1893.85L500.205,1887.81L491.798,1887.81L491.798,1878.83C491.798,1873.93 493.512,1871.4 497.022,1871.4C499.471,1871.4 501.593,1871.73 503.797,1871.98L503.797,1865.77C501.593,1865.36 499.144,1864.96 496.124,1864.96C488.533,1864.96 484.778,1869.69 484.778,1879.16L484.778,1887.81L478.411,1887.81Z" style="fill:white;fill-rule:nonzero;"/>
                        <path d="M529.101,1906.99C529.101,1918.1 537.59,1926.99 548.691,1926.99C554.405,1926.99 558.323,1924.62 560.935,1920.87L560.935,1926.18L567.873,1926.18L567.873,1864.96L560.935,1864.96L560.935,1893.12C558.323,1889.36 554.405,1887 548.691,1887C537.59,1887 529.101,1895.89 529.101,1906.99ZM549.099,1893.93C554.405,1893.93 558.895,1896.95 560.935,1901.44L560.935,1912.54C558.895,1916.95 554.405,1920.05 549.099,1920.05C541.835,1920.05 536.039,1914.26 536.039,1906.99C536.039,1899.73 541.835,1893.93 549.099,1893.93Z" style="fill:white;fill-rule:nonzero;"/>
                        <path d="M579.301,1885.93L584.77,1887.98L590.647,1872.38C590.647,1872.3 590.729,1872.22 590.729,1872.14C591.79,1869.36 590.402,1866.26 587.627,1865.28C586.974,1865.04 586.403,1864.96 585.75,1864.96C583.546,1864.96 581.505,1866.26 580.77,1868.38C579.791,1871 581.015,1873.85 583.464,1875L579.301,1885.93Z" style="fill:white;fill-rule:nonzero;"/>
                        <path d="M592.688,1906.99C592.688,1918.1 601.177,1926.99 612.278,1926.99C617.992,1926.99 621.91,1924.62 624.522,1920.87L624.522,1926.18L631.46,1926.18L631.46,1887.81L624.522,1887.81L624.522,1893.12C621.91,1889.36 617.992,1887 612.278,1887C601.177,1887 592.688,1895.89 592.688,1906.99ZM612.686,1893.93C617.992,1893.93 622.481,1896.95 624.522,1901.44L624.522,1912.54C622.481,1916.95 617.992,1920.05 612.686,1920.05C605.421,1920.05 599.626,1914.26 599.626,1906.99C599.626,1899.73 605.421,1893.93 612.686,1893.93Z" style="fill:white;fill-rule:nonzero;"/>
                        <path d="M651.459,1926.18L651.459,1907.24C651.459,1901.12 653.907,1894.75 661.825,1894.75L665.172,1894.75L665.09,1887.81L662.07,1887.81C656.438,1887.81 653.254,1890.75 651.459,1894.51L651.459,1887.81L644.52,1887.81L644.52,1926.18L651.459,1926.18Z" style="fill:white;fill-rule:nonzero;"/>
                        <path d="M670.886,1887.81L670.886,1893.85L677.416,1893.85L677.416,1926.18L684.354,1926.18L684.354,1893.85L695.129,1893.85L695.129,1887.81L684.354,1887.81L684.354,1874.83L677.416,1874.83L677.416,1887.81L670.886,1887.81Z" style="fill:white;fill-rule:nonzero;"/>
                        <path d="M700.632,1902.93C700.632,1901.91 700.935,1901.06 701.541,1900.38C702.147,1899.7 703.055,1899.36 704.267,1899.36C705.479,1899.36 706.398,1899.7 707.025,1900.38C707.652,1901.06 707.966,1901.91 707.966,1902.93C707.966,1903.93 707.652,1904.77 707.025,1905.43C706.398,1906.1 705.479,1906.44 704.267,1906.44C703.055,1906.44 702.147,1906.1 701.541,1905.43C700.935,1904.77 700.632,1903.93 700.632,1902.93Z" style="fill:white;fill-rule:nonzero;"/>
                        <path d="M719.502,1926.18L726.44,1926.18L726.44,1887.81L719.502,1887.81L719.502,1926.18ZM718.685,1872.55C718.685,1874.91 720.644,1876.87 723.012,1876.87C725.379,1876.87 727.338,1874.91 727.338,1872.55C727.338,1870.18 725.379,1868.22 723.012,1868.22C720.644,1868.22 718.685,1870.18 718.685,1872.55Z" style="fill:white;fill-rule:nonzero;"/>
                        <path d="M751.581,1926.99C759.58,1926.99 765.62,1922.67 765.62,1916.22C765.62,1901.93 744.969,1906.67 744.969,1897.2C744.969,1894.75 746.928,1893.12 750.928,1893.12C754.356,1893.12 756.315,1894.34 756.723,1897.12L763.825,1897.12C763.825,1891.16 758.192,1887 751.418,1887C742.847,1887 738.112,1891.4 738.112,1897.2C738.112,1912.95 758.764,1907.24 758.764,1916.22C758.764,1919.07 756.315,1920.87 751.581,1920.87C747.255,1920.87 744.071,1919.32 743.99,1914.75L737.051,1914.75C736.888,1922.34 741.867,1926.99 751.581,1926.99Z" style="fill:white;fill-rule:nonzero;"/>
                        <path d="M772.967,1906.99C772.967,1918.1 781.456,1926.99 792.557,1926.99C798.271,1926.99 802.189,1924.62 804.801,1920.87L804.801,1926.18L811.739,1926.18L811.739,1887.81L804.801,1887.81L804.801,1893.12C802.189,1889.36 798.271,1887 792.557,1887C781.456,1887 772.967,1895.89 772.967,1906.99ZM792.965,1893.93C798.271,1893.93 802.76,1896.95 804.801,1901.44L804.801,1912.54C802.76,1916.95 798.271,1920.05 792.965,1920.05C785.7,1920.05 779.905,1914.26 779.905,1906.99C779.905,1899.73 785.7,1893.93 792.965,1893.93Z" style="fill:white;fill-rule:nonzero;"/>
                        <path d="M831.738,1926.18L831.738,1909.44C831.738,1903.32 835.819,1893.93 843.737,1893.93C849.369,1893.93 851.573,1897.85 851.573,1902.59L851.573,1926.18L858.511,1926.18L858.511,1901.53C858.511,1895.81 855.981,1887 843.982,1887C837.696,1887 833.942,1890.34 831.738,1894.59L831.738,1887.81L824.799,1887.81L824.799,1926.18L831.738,1926.18Z" style="fill:white;fill-rule:nonzero;"/>
                        <path d="M883.652,1926.99C891.651,1926.99 897.692,1922.67 897.692,1916.22C897.692,1901.93 877.04,1906.67 877.04,1897.2C877.04,1894.75 878.999,1893.12 882.999,1893.12C886.427,1893.12 888.386,1894.34 888.794,1897.12L895.896,1897.12C895.896,1891.16 890.264,1887 883.489,1887C874.918,1887 870.184,1891.4 870.184,1897.2C870.184,1912.95 890.835,1907.24 890.835,1916.22C890.835,1919.07 888.386,1920.87 883.652,1920.87C879.326,1920.87 876.142,1919.32 876.061,1914.75L869.122,1914.75C868.959,1922.34 873.938,1926.99 883.652,1926.99Z" style="fill:white;fill-rule:nonzero;"/>
                    </g>
                    <g transform="matrix(1.89026,0,0,1.89026,-553.799,-1785.82)">
                        <g transform="matrix(50,0,0,50,329.181,1160)">
                            <rect x="0.08" y="-0.75" width="0.085" height="0.75" style="fill:white;fill-rule:nonzero;"/>
                        </g>
                        <g transform="matrix(50,0,0,50,341.431,1160)">
                            <path d="M0.04,-0.235C0.04,-0.099 0.14,0.01 0.289,0.01C0.375,0.01 0.427,-0.009 0.468,-0.03L0.468,-0.116C0.424,-0.094 0.369,-0.075 0.289,-0.075C0.195,-0.075 0.135,-0.135 0.126,-0.214L0.491,-0.214L0.491,-0.288C0.474,-0.403 0.405,-0.48 0.269,-0.48C0.13,-0.48 0.04,-0.371 0.04,-0.235ZM0.269,-0.395C0.367,-0.395 0.396,-0.334 0.4,-0.283L0.13,-0.283C0.146,-0.348 0.194,-0.395 0.269,-0.395Z" style="fill:white;fill-rule:nonzero;"/>
                        </g>
                        <g transform="matrix(50,0,0,50,381.981,1160)">
                            <path d="M0.03,-0.47L0.197,-0L0.282,-0L0.449,-0.47L0.359,-0.47L0.24,-0.12L0.12,-0.47L0.03,-0.47Z" style="fill:white;fill-rule:nonzero;"/>
                        </g>
                        <g transform="matrix(50,0,0,50,405.931,1160)">
                            <path d="M0.08,-0L0.165,-0L0.165,-0.47L0.08,-0.47L0.08,-0ZM0.07,-0.657C0.07,-0.628 0.094,-0.604 0.123,-0.604C0.152,-0.604 0.176,-0.628 0.176,-0.657C0.176,-0.686 0.152,-0.71 0.123,-0.71C0.094,-0.71 0.07,-0.686 0.07,-0.657Z" style="fill:white;fill-rule:nonzero;"/>
                        </g>
                        <g transform="matrix(50,0,0,50,418.181,1160)">
                            <rect x="0.08" y="-0.75" width="0.085" height="0.75" style="fill:white;fill-rule:nonzero;"/>
                        </g>
                        <g transform="matrix(50,0,0,50,430.431,1160)">
                            <rect x="0.08" y="-0.75" width="0.085" height="0.75" style="fill:white;fill-rule:nonzero;"/>
                        </g>
                        <g transform="matrix(50,0,0,50,442.681,1160)">
                            <path d="M0.04,-0.235C0.04,-0.099 0.144,0.01 0.28,0.01C0.35,0.01 0.398,-0.019 0.43,-0.065L0.43,-0L0.515,-0L0.515,-0.47L0.43,-0.47L0.43,-0.405C0.398,-0.451 0.35,-0.48 0.28,-0.48C0.144,-0.48 0.04,-0.371 0.04,-0.235ZM0.285,-0.395C0.35,-0.395 0.405,-0.358 0.43,-0.303L0.43,-0.167C0.405,-0.113 0.35,-0.075 0.285,-0.075C0.196,-0.075 0.125,-0.146 0.125,-0.235C0.125,-0.324 0.196,-0.395 0.285,-0.395Z" style="fill:white;fill-rule:nonzero;"/>
                        </g>
                        <g transform="matrix(50,0,0,50,472.431,1160)">
                            <path d="M0.139,-0.093L0.104,0.076C0.234,0.076 0.343,0.088 0.343,0.25L0.433,0.25C0.433,0.066 0.323,0.014 0.204,0.003L0.217,-0.061C0.233,-0.058 0.25,-0.056 0.267,-0.056C0.389,-0.056 0.484,-0.14 0.484,-0.262C0.484,-0.324 0.459,-0.379 0.419,-0.419L0.503,-0.499L0.443,-0.559L0.346,-0.466C0.322,-0.475 0.295,-0.48 0.267,-0.48C0.145,-0.48 0.05,-0.384 0.05,-0.262C0.05,-0.188 0.085,-0.129 0.139,-0.093ZM0.135,-0.263C0.135,-0.337 0.193,-0.395 0.267,-0.395C0.341,-0.395 0.399,-0.337 0.399,-0.263C0.399,-0.189 0.341,-0.131 0.267,-0.131C0.193,-0.131 0.135,-0.189 0.135,-0.263Z" style="fill:white;fill-rule:nonzero;"/>
                        </g>
                        <g transform="matrix(50,0,0,50,499.081,1160)">
                            <path d="M0.04,-0.235C0.04,-0.099 0.14,0.01 0.289,0.01C0.375,0.01 0.427,-0.009 0.468,-0.03L0.468,-0.116C0.424,-0.094 0.369,-0.075 0.289,-0.075C0.195,-0.075 0.135,-0.135 0.126,-0.214L0.491,-0.214L0.491,-0.288C0.474,-0.403 0.405,-0.48 0.269,-0.48C0.13,-0.48 0.04,-0.371 0.04,-0.235ZM0.269,-0.395C0.367,-0.395 0.396,-0.334 0.4,-0.283L0.13,-0.283C0.146,-0.348 0.194,-0.395 0.269,-0.395Z" style="fill:white;fill-rule:nonzero;"/>
                        </g>
                    </g>
                </g>
                <g transform="matrix(1.28,0,0,1.28,-461.853,-869.6)">
                    <path d="M632.698,749.891L701.448,720L701.448,920L420.198,920L420.198,782.5L563.948,720L563.948,749.891L632.698,720L632.698,749.891ZM557.698,752.609L488.948,782.5L488.948,913.75L426.448,913.75L426.448,786.598C470.198,767.576 513.948,748.554 557.698,729.533L557.698,752.609ZM626.448,752.609L557.698,782.5L557.698,913.75L495.198,913.75L495.198,786.598C538.948,767.576 582.698,748.554 626.448,729.533L626.448,752.609ZM632.698,756.706L695.198,729.533L695.198,913.75L632.698,913.75L632.698,756.706ZM563.948,786.598L563.948,913.75L626.448,913.75L626.448,759.424C605.614,768.482 584.781,777.54 563.948,786.598Z" style="fill:white;"/>
                </g>
            </g>
        </g>
    </g>
</svg>
