<?xml version="1.0" encoding="UTF-8" standalone="no"?>
<!DOCTYPE svg PUBLIC "-//W3C//DTD SVG 1.1//EN" "http://www.w3.org/Graphics/SVG/1.1/DTD/svg11.dtd">
<svg width="100%" height="100%" viewBox="0 0 512 512" version="1.1" xmlns="http://www.w3.org/2000/svg" xmlns:xlink="http://www.w3.org/1999/xlink" xml:space="preserve" xmlns:serif="http://www.serif.com/" style="fill-rule:evenodd;clip-rule:evenodd;stroke-linejoin:round;stroke-miterlimit:2;">
    <g transform="matrix(1,0,0,1,-564,-564)">
        <g id="favicon" transform="matrix(1,0,0,1,564,564)">
            <g transform="matrix(0.8,0,0,0.8,0,0)">
                <path d="M640,64C640,28.677 611.323,0 576,0L64,0C28.677,0 0,28.677 0,64L0,576C0,611.323 28.677,640 64,640L576,640C611.323,640 640,611.323 640,576L640,64Z" style="fill:rgb(7,59,76);"/>
            </g>
            <g transform="matrix(1,0,0,1,0,60)">
                <g transform="matrix(1,0,0,1,0,12)">
                    <path d="M260,141.245L260,304L340,304L340,106.463C313.333,118.057 286.667,129.651 260,141.245Z" style="fill:rgb(6,214,160);"/>
                </g>
                <g transform="matrix(1,0,0,1,0,12)">
                    <path d="M348,102.984L428,68.202L428,304L348,304L348,102.984Z" style="fill:rgb(17,138,178);"/>
                </g>
                <g transform="matrix(1,0,0,1,0,12)">
                    <path d="M340,97.739L252,136L252,304L172,304L172,141.245C228,116.897 284,92.55 340,68.202L340,97.739Z" style="fill:rgb(255,209,102);"/>
                </g>
                <g transform="matrix(1,0,0,1,0,12)">
                    <path d="M252,97.739L164,136L164,304L84,304L84,141.245C140,116.897 196,92.55 252,68.202L252,97.739Z" style="fill:rgb(239,71,111);"/>
                </g>
            </g>
        </g>
    </g>
</svg>
