<?xml version="1.0" encoding="UTF-8" standalone="no"?>
<!DOCTYPE svg PUBLIC "-//W3C//DTD SVG 1.1//EN" "http://www.w3.org/Graphics/SVG/1.1/DTD/svg11.dtd">
<svg width="100%" height="100%" viewBox="0 0 512 512" version="1.1" xmlns="http://www.w3.org/2000/svg" xmlns:xlink="http://www.w3.org/1999/xlink" xml:space="preserve" xmlns:serif="http://www.serif.com/" style="fill-rule:evenodd;clip-rule:evenodd;stroke-linejoin:round;stroke-miterlimit:2;">
    <g transform="matrix(1,0,0,1,-564,-564)">
        <g id="logo-light" transform="matrix(1,0,0,1,564,564)">
            <g transform="matrix(1.04317,0,0,1.05253,-22.1032,-26.8931)">
                <rect x="21.188" y="25.551" width="490.812" height="486.449" style="fill:white;"/>
            </g>
            <g transform="matrix(0.382843,0,0,0.382843,91.9001,-273.495)">
                <g transform="matrix(83.3333,0,0,83.3333,-44.8651,1926.18)">
                    <path d="M0.04,-0.235C0.04,-0.099 0.144,0.01 0.28,0.01C0.35,0.01 0.398,-0.019 0.43,-0.065L0.43,0L0.515,0L0.515,-0.47L0.43,-0.47L0.43,-0.405C0.398,-0.451 0.35,-0.48 0.28,-0.48C0.144,-0.48 0.04,-0.371 0.04,-0.235ZM0.285,-0.395C0.35,-0.395 0.405,-0.358 0.43,-0.303L0.43,-0.167C0.405,-0.113 0.35,-0.075 0.285,-0.075C0.196,-0.075 0.125,-0.146 0.125,-0.235C0.125,-0.324 0.196,-0.395 0.285,-0.395Z" style="fill-rule:nonzero;"/>
                </g>
                <g transform="matrix(83.3333,0,0,83.3333,4.71824,1926.18)">
                    <path d="M0.04,-0.47L0.04,-0.396L0.12,-0.396L0.12,0L0.205,0L0.205,-0.396L0.337,-0.396L0.337,-0.47L0.205,-0.47L0.205,-0.629L0.12,-0.629L0.12,-0.47L0.04,-0.47Z" style="fill-rule:nonzero;"/>
                </g>
                <g transform="matrix(83.3333,0,0,83.3333,33.6349,1926.18)">
                    <path d="M0.04,-0.235C0.04,-0.099 0.14,0.01 0.289,0.01C0.375,0.01 0.427,-0.009 0.468,-0.03L0.468,-0.116C0.424,-0.094 0.369,-0.075 0.289,-0.075C0.195,-0.075 0.135,-0.135 0.126,-0.214L0.491,-0.214L0.491,-0.288C0.474,-0.403 0.405,-0.48 0.269,-0.48C0.13,-0.48 0.04,-0.371 0.04,-0.235ZM0.269,-0.395C0.367,-0.395 0.396,-0.334 0.4,-0.283L0.13,-0.283C0.146,-0.348 0.194,-0.395 0.269,-0.395Z" style="fill-rule:nonzero;"/>
                </g>
                <g transform="matrix(83.3333,0,0,83.3333,79.5516,1926.18)">
                    <rect x="0.08" y="-0.75" width="0.085" height="0.75" style="fill-rule:nonzero;"/>
                </g>
                <g transform="matrix(83.3333,0,0,83.3333,99.9682,1926.18)">
                    <path d="M0.08,0L0.165,0L0.165,-0.47L0.08,-0.47L0.08,0ZM0.07,-0.657C0.07,-0.628 0.094,-0.604 0.123,-0.604C0.152,-0.604 0.176,-0.628 0.176,-0.657C0.176,-0.686 0.152,-0.71 0.123,-0.71C0.094,-0.71 0.07,-0.686 0.07,-0.657Z" style="fill-rule:nonzero;"/>
                </g>
                <g transform="matrix(83.3333,0,0,83.3333,120.385,1926.18)">
                    <path d="M0.04,-0.235C0.04,-0.099 0.14,0.01 0.289,0.01C0.375,0.01 0.427,-0.009 0.468,-0.03L0.468,-0.116C0.424,-0.094 0.369,-0.075 0.289,-0.075C0.195,-0.075 0.135,-0.135 0.126,-0.214L0.491,-0.214L0.491,-0.288C0.474,-0.403 0.405,-0.48 0.269,-0.48C0.13,-0.48 0.04,-0.371 0.04,-0.235ZM0.269,-0.395C0.367,-0.395 0.396,-0.334 0.4,-0.283L0.13,-0.283C0.146,-0.348 0.194,-0.395 0.269,-0.395Z" style="fill-rule:nonzero;"/>
                </g>
                <g transform="matrix(83.3333,0,0,83.3333,166.302,1926.18)">
                    <path d="M0.165,0L0.165,-0.232C0.165,-0.307 0.195,-0.385 0.292,-0.385L0.333,-0.385L0.332,-0.47L0.295,-0.47C0.226,-0.47 0.187,-0.434 0.165,-0.388L0.165,-0.47L0.08,-0.47L0.08,0L0.165,0Z" style="fill-rule:nonzero;"/>
                </g>
                <g transform="matrix(83.3333,0,0,83.3333,218.218,1926.18)">
                    <path d="M0.28,0.01C0.362,0.01 0.397,-0.009 0.438,-0.03L0.438,-0.116C0.394,-0.094 0.346,-0.075 0.281,-0.075C0.183,-0.075 0.125,-0.146 0.125,-0.235C0.125,-0.324 0.195,-0.395 0.281,-0.395C0.346,-0.395 0.394,-0.376 0.438,-0.354L0.438,-0.44C0.397,-0.461 0.362,-0.48 0.28,-0.48C0.148,-0.48 0.04,-0.371 0.04,-0.235C0.04,-0.099 0.135,0.01 0.28,0.01Z" style="fill-rule:nonzero;"/>
                </g>
                <g transform="matrix(83.3333,0,0,83.3333,259.718,1926.18)">
                    <path d="M0.04,-0.235C0.04,-0.099 0.149,0.01 0.285,0.01C0.421,0.01 0.53,-0.099 0.53,-0.235C0.53,-0.371 0.421,-0.48 0.285,-0.48C0.149,-0.48 0.04,-0.371 0.04,-0.235ZM0.285,-0.395C0.374,-0.395 0.445,-0.324 0.445,-0.235C0.445,-0.146 0.374,-0.075 0.285,-0.075C0.196,-0.075 0.125,-0.146 0.125,-0.235C0.125,-0.324 0.196,-0.395 0.285,-0.395Z" style="fill-rule:nonzero;"/>
                </g>
                <g transform="matrix(83.3333,0,0,83.3333,307.218,1926.18)">
                    <rect x="0.08" y="-0.75" width="0.085" height="0.75" style="fill-rule:nonzero;"/>
                </g>
                <g transform="matrix(83.3333,0,0,83.3333,327.635,1926.18)">
                    <rect x="0.08" y="-0.75" width="0.085" height="0.75" style="fill-rule:nonzero;"/>
                </g>
                <g transform="matrix(83.3333,0,0,83.3333,348.052,1926.18)">
                    <path d="M0.04,-0.235C0.04,-0.099 0.14,0.01 0.289,0.01C0.375,0.01 0.427,-0.009 0.468,-0.03L0.468,-0.116C0.424,-0.094 0.369,-0.075 0.289,-0.075C0.195,-0.075 0.135,-0.135 0.126,-0.214L0.491,-0.214L0.491,-0.288C0.474,-0.403 0.405,-0.48 0.269,-0.48C0.13,-0.48 0.04,-0.371 0.04,-0.235ZM0.269,-0.395C0.367,-0.395 0.396,-0.334 0.4,-0.283L0.13,-0.283C0.146,-0.348 0.194,-0.395 0.269,-0.395Z" style="fill-rule:nonzero;"/>
                </g>
                <g transform="matrix(83.3333,0,0,83.3333,393.968,1926.18)">
                    <path d="M0.28,0.01C0.362,0.01 0.397,-0.009 0.438,-0.03L0.438,-0.116C0.394,-0.094 0.346,-0.075 0.281,-0.075C0.183,-0.075 0.125,-0.146 0.125,-0.235C0.125,-0.324 0.195,-0.395 0.281,-0.395C0.346,-0.395 0.394,-0.376 0.438,-0.354L0.438,-0.44C0.397,-0.461 0.362,-0.48 0.28,-0.48C0.148,-0.48 0.04,-0.371 0.04,-0.235C0.04,-0.099 0.135,0.01 0.28,0.01Z" style="fill-rule:nonzero;"/>
                </g>
                <g transform="matrix(83.3333,0,0,83.3333,435.468,1926.18)">
                    <path d="M0.04,-0.47L0.04,-0.396L0.12,-0.396L0.12,0L0.205,0L0.205,-0.396L0.337,-0.396L0.337,-0.47L0.205,-0.47L0.205,-0.629L0.12,-0.629L0.12,-0.47L0.04,-0.47Z" style="fill-rule:nonzero;"/>
                </g>
                <g transform="matrix(83.3333,0,0,83.3333,464.385,1926.18)">
                    <path d="M0.08,0L0.165,0L0.165,-0.47L0.08,-0.47L0.08,0ZM0.07,-0.657C0.07,-0.628 0.094,-0.604 0.123,-0.604C0.152,-0.604 0.176,-0.628 0.176,-0.657C0.176,-0.686 0.152,-0.71 0.123,-0.71C0.094,-0.71 0.07,-0.686 0.07,-0.657Z" style="fill-rule:nonzero;"/>
                </g>
                <g transform="matrix(83.3333,0,0,83.3333,484.802,1926.18)">
                    <path d="M0.04,-0.47L0.04,-0.396L0.118,-0.396L0.118,0L0.204,0L0.204,-0.396L0.307,-0.396L0.307,-0.47L0.204,-0.47L0.204,-0.58C0.204,-0.64 0.225,-0.671 0.268,-0.671C0.298,-0.671 0.324,-0.667 0.351,-0.664L0.351,-0.74C0.324,-0.745 0.294,-0.75 0.257,-0.75C0.164,-0.75 0.118,-0.692 0.118,-0.576L0.118,-0.47L0.04,-0.47Z" style="fill-rule:nonzero;"/>
                </g>
                <g transform="matrix(83.3333,0,0,83.3333,536.552,1926.18)">
                    <path d="M0.04,-0.235C0.04,-0.099 0.144,0.01 0.28,0.01C0.35,0.01 0.398,-0.019 0.43,-0.065L0.43,0L0.515,0L0.515,-0.75L0.43,-0.75L0.43,-0.405C0.398,-0.451 0.35,-0.48 0.28,-0.48C0.144,-0.48 0.04,-0.371 0.04,-0.235ZM0.285,-0.395C0.35,-0.395 0.405,-0.358 0.43,-0.303L0.43,-0.167C0.405,-0.113 0.35,-0.075 0.285,-0.075C0.196,-0.075 0.125,-0.146 0.125,-0.235C0.125,-0.324 0.196,-0.395 0.285,-0.395Z" style="fill-rule:nonzero;"/>
                </g>
                <g transform="matrix(83.3333,0,0,83.3333,586.135,1926.18)">
                    <path d="M0.06,-0.493L0.127,-0.468L0.199,-0.659C0.199,-0.66 0.2,-0.661 0.2,-0.662C0.213,-0.696 0.196,-0.734 0.162,-0.746C0.154,-0.749 0.147,-0.75 0.139,-0.75C0.112,-0.75 0.087,-0.734 0.078,-0.708C0.066,-0.676 0.081,-0.641 0.111,-0.627L0.06,-0.493Z" style="fill-rule:nonzero;"/>
                </g>
                <g transform="matrix(83.3333,0,0,83.3333,601.468,1926.18)">
                    <path d="M0.04,-0.235C0.04,-0.099 0.144,0.01 0.28,0.01C0.35,0.01 0.398,-0.019 0.43,-0.065L0.43,0L0.515,0L0.515,-0.47L0.43,-0.47L0.43,-0.405C0.398,-0.451 0.35,-0.48 0.28,-0.48C0.144,-0.48 0.04,-0.371 0.04,-0.235ZM0.285,-0.395C0.35,-0.395 0.405,-0.358 0.43,-0.303L0.43,-0.167C0.405,-0.113 0.35,-0.075 0.285,-0.075C0.196,-0.075 0.125,-0.146 0.125,-0.235C0.125,-0.324 0.196,-0.395 0.285,-0.395Z" style="fill-rule:nonzero;"/>
                </g>
                <g transform="matrix(83.3333,0,0,83.3333,651.052,1926.18)">
                    <path d="M0.165,0L0.165,-0.232C0.165,-0.307 0.195,-0.385 0.292,-0.385L0.333,-0.385L0.332,-0.47L0.295,-0.47C0.226,-0.47 0.187,-0.434 0.165,-0.388L0.165,-0.47L0.08,-0.47L0.08,0L0.165,0Z" style="fill-rule:nonzero;"/>
                </g>
                <g transform="matrix(83.3333,0,0,83.3333,681.302,1926.18)">
                    <path d="M0.04,-0.47L0.04,-0.396L0.12,-0.396L0.12,0L0.205,0L0.205,-0.396L0.337,-0.396L0.337,-0.47L0.205,-0.47L0.205,-0.629L0.12,-0.629L0.12,-0.47L0.04,-0.47Z" style="fill-rule:nonzero;"/>
                </g>
                <g transform="matrix(83.3333,0,0,83.3333,710.218,1926.18)">
                    <path d="M0.08,0L0.165,0L0.165,-0.47L0.08,-0.47L0.08,0ZM0.07,-0.657C0.07,-0.628 0.094,-0.604 0.123,-0.604C0.152,-0.604 0.176,-0.628 0.176,-0.657C0.176,-0.686 0.152,-0.71 0.123,-0.71C0.094,-0.71 0.07,-0.686 0.07,-0.657Z" style="fill-rule:nonzero;"/>
                </g>
                <g transform="matrix(83.3333,0,0,83.3333,730.635,1926.18)">
                    <path d="M0.228,0.01C0.326,0.01 0.4,-0.043 0.4,-0.122C0.4,-0.297 0.147,-0.239 0.147,-0.355C0.147,-0.385 0.171,-0.405 0.22,-0.405C0.262,-0.405 0.286,-0.39 0.291,-0.356L0.378,-0.356C0.378,-0.429 0.309,-0.48 0.226,-0.48C0.121,-0.48 0.063,-0.426 0.063,-0.355C0.063,-0.162 0.316,-0.232 0.316,-0.122C0.316,-0.087 0.286,-0.065 0.228,-0.065C0.175,-0.065 0.136,-0.084 0.135,-0.14L0.05,-0.14C0.048,-0.047 0.109,0.01 0.228,0.01Z" style="fill-rule:nonzero;"/>
                </g>
                <g transform="matrix(83.3333,0,0,83.3333,768.135,1926.18)">
                    <path d="M0.04,-0.235C0.04,-0.099 0.144,0.01 0.28,0.01C0.35,0.01 0.398,-0.019 0.43,-0.065L0.43,0L0.515,0L0.515,-0.47L0.43,-0.47L0.43,-0.405C0.398,-0.451 0.35,-0.48 0.28,-0.48C0.144,-0.48 0.04,-0.371 0.04,-0.235ZM0.285,-0.395C0.35,-0.395 0.405,-0.358 0.43,-0.303L0.43,-0.167C0.405,-0.113 0.35,-0.075 0.285,-0.075C0.196,-0.075 0.125,-0.146 0.125,-0.235C0.125,-0.324 0.196,-0.395 0.285,-0.395Z" style="fill-rule:nonzero;"/>
                </g>
                <g transform="matrix(83.3333,0,0,83.3333,817.718,1926.18)">
                    <path d="M0.165,0L0.165,-0.205C0.165,-0.28 0.215,-0.395 0.312,-0.395C0.381,-0.395 0.408,-0.347 0.408,-0.289L0.408,0L0.493,0L0.493,-0.302C0.493,-0.372 0.462,-0.48 0.315,-0.48C0.238,-0.48 0.192,-0.439 0.165,-0.387L0.165,-0.47L0.08,-0.47L0.08,0L0.165,0Z" style="fill-rule:nonzero;"/>
                </g>
                <g transform="matrix(83.3333,0,0,83.3333,865.468,1926.18)">
                    <path d="M0.228,0.01C0.326,0.01 0.4,-0.043 0.4,-0.122C0.4,-0.297 0.147,-0.239 0.147,-0.355C0.147,-0.385 0.171,-0.405 0.22,-0.405C0.262,-0.405 0.286,-0.39 0.291,-0.356L0.378,-0.356C0.378,-0.429 0.309,-0.48 0.226,-0.48C0.121,-0.48 0.063,-0.426 0.063,-0.355C0.063,-0.162 0.316,-0.232 0.316,-0.122C0.316,-0.087 0.286,-0.065 0.228,-0.065C0.175,-0.065 0.136,-0.084 0.135,-0.14L0.05,-0.14C0.048,-0.047 0.109,0.01 0.228,0.01Z" style="fill-rule:nonzero;"/>
                </g>
            </g>
            <g transform="matrix(1.89026,0,0,1.89026,-553.799,-1785.82)">
                <g transform="matrix(50,0,0,50,329.181,1160)">
                    <rect x="0.08" y="-0.75" width="0.085" height="0.75" style="fill-rule:nonzero;"/>
                </g>
                <g transform="matrix(50,0,0,50,341.431,1160)">
                    <path d="M0.04,-0.235C0.04,-0.099 0.14,0.01 0.289,0.01C0.375,0.01 0.427,-0.009 0.468,-0.03L0.468,-0.116C0.424,-0.094 0.369,-0.075 0.289,-0.075C0.195,-0.075 0.135,-0.135 0.126,-0.214L0.491,-0.214L0.491,-0.288C0.474,-0.403 0.405,-0.48 0.269,-0.48C0.13,-0.48 0.04,-0.371 0.04,-0.235ZM0.269,-0.395C0.367,-0.395 0.396,-0.334 0.4,-0.283L0.13,-0.283C0.146,-0.348 0.194,-0.395 0.269,-0.395Z" style="fill-rule:nonzero;"/>
                </g>
                <g transform="matrix(50,0,0,50,381.981,1160)">
                    <path d="M0.03,-0.47L0.197,0L0.282,0L0.449,-0.47L0.359,-0.47L0.24,-0.12L0.12,-0.47L0.03,-0.47Z" style="fill-rule:nonzero;"/>
                </g>
                <g transform="matrix(50,0,0,50,405.931,1160)">
                    <path d="M0.08,0L0.165,0L0.165,-0.47L0.08,-0.47L0.08,0ZM0.07,-0.657C0.07,-0.628 0.094,-0.604 0.123,-0.604C0.152,-0.604 0.176,-0.628 0.176,-0.657C0.176,-0.686 0.152,-0.71 0.123,-0.71C0.094,-0.71 0.07,-0.686 0.07,-0.657Z" style="fill-rule:nonzero;"/>
                </g>
                <g transform="matrix(50,0,0,50,418.181,1160)">
                    <rect x="0.08" y="-0.75" width="0.085" height="0.75" style="fill-rule:nonzero;"/>
                </g>
                <g transform="matrix(50,0,0,50,430.431,1160)">
                    <rect x="0.08" y="-0.75" width="0.085" height="0.75" style="fill-rule:nonzero;"/>
                </g>
                <g transform="matrix(50,0,0,50,442.681,1160)">
                    <path d="M0.04,-0.235C0.04,-0.099 0.144,0.01 0.28,0.01C0.35,0.01 0.398,-0.019 0.43,-0.065L0.43,0L0.515,0L0.515,-0.47L0.43,-0.47L0.43,-0.405C0.398,-0.451 0.35,-0.48 0.28,-0.48C0.144,-0.48 0.04,-0.371 0.04,-0.235ZM0.285,-0.395C0.35,-0.395 0.405,-0.358 0.43,-0.303L0.43,-0.167C0.405,-0.113 0.35,-0.075 0.285,-0.075C0.196,-0.075 0.125,-0.146 0.125,-0.235C0.125,-0.324 0.196,-0.395 0.285,-0.395Z" style="fill-rule:nonzero;"/>
                </g>
                <g transform="matrix(50,0,0,50,472.431,1160)">
                    <path d="M0.139,-0.093L0.104,0.076C0.234,0.076 0.343,0.088 0.343,0.25L0.433,0.25C0.433,0.066 0.323,0.014 0.204,0.003L0.217,-0.061C0.233,-0.058 0.25,-0.056 0.267,-0.056C0.389,-0.056 0.484,-0.14 0.484,-0.262C0.484,-0.324 0.459,-0.379 0.419,-0.419L0.503,-0.499L0.443,-0.559L0.346,-0.466C0.322,-0.475 0.295,-0.48 0.267,-0.48C0.145,-0.48 0.05,-0.384 0.05,-0.262C0.05,-0.188 0.085,-0.129 0.139,-0.093ZM0.135,-0.263C0.135,-0.337 0.193,-0.395 0.267,-0.395C0.341,-0.395 0.399,-0.337 0.399,-0.263C0.399,-0.189 0.341,-0.131 0.267,-0.131C0.193,-0.131 0.135,-0.189 0.135,-0.263Z" style="fill-rule:nonzero;"/>
                </g>
                <g transform="matrix(50,0,0,50,499.081,1160)">
                    <path d="M0.04,-0.235C0.04,-0.099 0.14,0.01 0.289,0.01C0.375,0.01 0.427,-0.009 0.468,-0.03L0.468,-0.116C0.424,-0.094 0.369,-0.075 0.289,-0.075C0.195,-0.075 0.135,-0.135 0.126,-0.214L0.491,-0.214L0.491,-0.288C0.474,-0.403 0.405,-0.48 0.269,-0.48C0.13,-0.48 0.04,-0.371 0.04,-0.235ZM0.269,-0.395C0.367,-0.395 0.396,-0.334 0.4,-0.283L0.13,-0.283C0.146,-0.348 0.194,-0.395 0.269,-0.395Z" style="fill-rule:nonzero;"/>
                </g>
            </g>
            <g transform="matrix(1,0,0,1,0,-4)">
                <path d="M348,94.261L436,56L436,312L348,312C348,312 76,312 76,312L76,136L260,56L260,94.261L348,56L348,94.261Z"/>
            </g>
            <g transform="matrix(1,0,0,1,0,-4)">
                <path d="M260,141.245L260,304L340,304L340,106.463C313.333,118.057 286.667,129.651 260,141.245Z" style="fill:rgb(6,214,160);"/>
            </g>
            <g transform="matrix(1,0,0,1,0,-4)">
                <path d="M348,102.984L428,68.202L428,304L348,304L348,102.984Z" style="fill:rgb(17,138,178);"/>
            </g>
            <g transform="matrix(1,0,0,1,0,-4)">
                <path d="M340,97.739L252,136L252,304L172,304L172,141.245C228,116.897 284,92.55 340,68.202L340,97.739Z" style="fill:rgb(255,209,102);"/>
            </g>
            <g transform="matrix(1,0,0,1,0,-4)">
                <path d="M252,97.739L164,136L164,304L84,304L84,141.245C140,116.897 196,92.55 252,68.202L252,97.739Z" style="fill:rgb(239,71,111);"/>
            </g>
        </g>
    </g>
</svg>
