<?xml version="1.0" encoding="UTF-8" standalone="no"?>
<!DOCTYPE svg PUBLIC "-//W3C//DTD SVG 1.1//EN" "http://www.w3.org/Graphics/SVG/1.1/DTD/svg11.dtd">
<svg width="100%" height="100%" viewBox="0 0 512 512" version="1.1" xmlns="http://www.w3.org/2000/svg" xmlns:xlink="http://www.w3.org/1999/xlink" xml:space="preserve" xmlns:serif="http://www.serif.com/" style="fill-rule:evenodd;clip-rule:evenodd;stroke-linejoin:round;stroke-miterlimit:2;">
    <g transform="matrix(1,0,0,1,-564,-564)">
        <g id="logo-wb-light" transform="matrix(1,0,0,1,564,564)">
            <g transform="matrix(1.04317,0,0,1.05253,-22.1032,-26.8931)">
                <rect x="21.188" y="25.551" width="490.812" height="486.449" style="fill:white;"/>
            </g>
            <g transform="matrix(1.89026,0,0,1.89026,-553.799,-1785.82)">
                <g transform="matrix(50,0,0,50,329.181,1160)">
                    <rect x="0.08" y="-0.75" width="0.085" height="0.75" style="fill-rule:nonzero;"/>
                </g>
                <g transform="matrix(50,0,0,50,341.431,1160)">
                    <path d="M0.04,-0.235C0.04,-0.099 0.14,0.01 0.289,0.01C0.375,0.01 0.427,-0.009 0.468,-0.03L0.468,-0.116C0.424,-0.094 0.369,-0.075 0.289,-0.075C0.195,-0.075 0.135,-0.135 0.126,-0.214L0.491,-0.214L0.491,-0.288C0.474,-0.403 0.405,-0.48 0.269,-0.48C0.13,-0.48 0.04,-0.371 0.04,-0.235ZM0.269,-0.395C0.367,-0.395 0.396,-0.334 0.4,-0.283L0.13,-0.283C0.146,-0.348 0.194,-0.395 0.269,-0.395Z" style="fill-rule:nonzero;"/>
                </g>
                <g transform="matrix(50,0,0,50,381.981,1160)">
                    <path d="M0.03,-0.47L0.197,0L0.282,0L0.449,-0.47L0.359,-0.47L0.24,-0.12L0.12,-0.47L0.03,-0.47Z" style="fill-rule:nonzero;"/>
                </g>
                <g transform="matrix(50,0,0,50,405.931,1160)">
                    <path d="M0.08,0L0.165,0L0.165,-0.47L0.08,-0.47L0.08,0ZM0.07,-0.657C0.07,-0.628 0.094,-0.604 0.123,-0.604C0.152,-0.604 0.176,-0.628 0.176,-0.657C0.176,-0.686 0.152,-0.71 0.123,-0.71C0.094,-0.71 0.07,-0.686 0.07,-0.657Z" style="fill-rule:nonzero;"/>
                </g>
                <g transform="matrix(50,0,0,50,418.181,1160)">
                    <rect x="0.08" y="-0.75" width="0.085" height="0.75" style="fill-rule:nonzero;"/>
                </g>
                <g transform="matrix(50,0,0,50,430.431,1160)">
                    <rect x="0.08" y="-0.75" width="0.085" height="0.75" style="fill-rule:nonzero;"/>
                </g>
                <g transform="matrix(50,0,0,50,442.681,1160)">
                    <path d="M0.04,-0.235C0.04,-0.099 0.144,0.01 0.28,0.01C0.35,0.01 0.398,-0.019 0.43,-0.065L0.43,0L0.515,0L0.515,-0.47L0.43,-0.47L0.43,-0.405C0.398,-0.451 0.35,-0.48 0.28,-0.48C0.144,-0.48 0.04,-0.371 0.04,-0.235ZM0.285,-0.395C0.35,-0.395 0.405,-0.358 0.43,-0.303L0.43,-0.167C0.405,-0.113 0.35,-0.075 0.285,-0.075C0.196,-0.075 0.125,-0.146 0.125,-0.235C0.125,-0.324 0.196,-0.395 0.285,-0.395Z" style="fill-rule:nonzero;"/>
                </g>
                <g transform="matrix(50,0,0,50,472.431,1160)">
                    <path d="M0.139,-0.093L0.104,0.076C0.234,0.076 0.343,0.088 0.343,0.25L0.433,0.25C0.433,0.066 0.323,0.014 0.204,0.003L0.217,-0.061C0.233,-0.058 0.25,-0.056 0.267,-0.056C0.389,-0.056 0.484,-0.14 0.484,-0.262C0.484,-0.324 0.459,-0.379 0.419,-0.419L0.503,-0.499L0.443,-0.559L0.346,-0.466C0.322,-0.475 0.295,-0.48 0.267,-0.48C0.145,-0.48 0.05,-0.384 0.05,-0.262C0.05,-0.188 0.085,-0.129 0.139,-0.093ZM0.135,-0.263C0.135,-0.337 0.193,-0.395 0.267,-0.395C0.341,-0.395 0.399,-0.337 0.399,-0.263C0.399,-0.189 0.341,-0.131 0.267,-0.131C0.193,-0.131 0.135,-0.189 0.135,-0.263Z" style="fill-rule:nonzero;"/>
                </g>
                <g transform="matrix(50,0,0,50,499.081,1160)">
                    <path d="M0.04,-0.235C0.04,-0.099 0.14,0.01 0.289,0.01C0.375,0.01 0.427,-0.009 0.468,-0.03L0.468,-0.116C0.424,-0.094 0.369,-0.075 0.289,-0.075C0.195,-0.075 0.135,-0.135 0.126,-0.214L0.491,-0.214L0.491,-0.288C0.474,-0.403 0.405,-0.48 0.269,-0.48C0.13,-0.48 0.04,-0.371 0.04,-0.235ZM0.269,-0.395C0.367,-0.395 0.396,-0.334 0.4,-0.283L0.13,-0.283C0.146,-0.348 0.194,-0.395 0.269,-0.395Z" style="fill-rule:nonzero;"/>
                </g>
            </g>
            <g transform="matrix(1,0,0,1,0,-4)">
                <path d="M436,312L348,312L76,312L76,136L260,56L260,94.261L348,56L348,94.261L436,56L436,312ZM252,304L252,136L340,97.739L340,68.202C284,92.55 228,116.897 172,141.245L172,304L252,304ZM164,304L164,136L252,97.739L252,68.202C196,92.55 140,116.897 84,141.245L84,304L164,304ZM428,304L428,68.202L348,102.984L348,304L428,304ZM340,304L340,106.463C313.333,118.057 286.667,129.651 260,141.245L260,304L340,304Z"/>
            </g>
        </g>
    </g>
</svg>
